<svg width="75" height="75" viewBox="0 0 75 75" fill="none" xmlns="http://www.w3.org/2000/svg">
<path fill-rule="evenodd" clip-rule="evenodd" d="M37.3517 7.62939e-05C27.2075 7.62939e-05 25.9356 0.0430756 21.9516 0.224854C17.976 0.406189 15.2607 1.03766 12.8849 1.96091C10.4287 2.91547 8.34567 4.19264 6.26911 6.26913C4.19261 8.34562 2.91543 10.4288 1.9609 12.885C1.03758 15.2608 0.406172 17.976 0.224719 21.9517C0.0429745 25.9356 0 27.2076 0 37.3518C0 47.4958 0.0429745 48.7678 0.224719 52.7518C0.406172 56.7274 1.03758 59.4426 1.9609 61.8185C2.91543 64.2747 4.19261 66.3577 6.26911 68.4343C8.34567 70.5108 10.4287 71.788 12.8849 72.7425C15.2607 73.6658 17.976 74.2973 21.9516 74.4786C25.9356 74.6603 27.2075 74.7034 37.3517 74.7034C47.4957 74.7034 48.7677 74.6603 52.7517 74.4786C56.7273 74.2973 59.4425 73.6658 61.8184 72.7425C64.2746 71.788 66.3576 70.5108 68.4342 68.4343C70.5107 66.3577 71.7879 64.2747 72.7425 61.8185C73.6657 59.4426 74.2972 56.7274 74.4785 52.7518C74.6603 48.7678 74.7033 47.4958 74.7033 37.3518C74.7033 27.2076 74.6603 25.9356 74.4785 21.9517C74.2972 17.976 73.6657 15.2608 72.7425 12.885C71.7879 10.4288 70.5107 8.34562 68.4342 6.26913C66.3576 4.19264 64.2746 2.91547 61.8184 1.96091C59.4425 1.03766 56.7273 0.406189 52.7517 0.224854C48.7677 0.0430756 47.4957 7.62939e-05 37.3517 7.62939e-05ZM37.3517 6.73009C47.3249 6.73009 48.5063 6.7682 52.4449 6.9479C56.0867 7.11396 58.0644 7.72245 59.3806 8.23398C61.1241 8.91156 62.3683 9.72095 63.6753 11.0279C64.9824 12.3351 65.7918 13.5793 66.4694 15.3228C66.9809 16.639 67.5894 18.6167 67.7555 22.2585C67.9352 26.197 67.9733 27.3784 67.9733 37.3518C67.9733 47.325 67.9352 48.5064 67.7555 52.445C67.5894 56.0867 66.9809 58.0645 66.4694 59.3807C65.7918 61.1242 64.9824 62.3684 63.6753 63.6754C62.3683 64.9825 61.1241 65.7919 59.3806 66.4695C58.0644 66.981 56.0867 67.5895 52.4449 67.7555C48.5069 67.9353 47.3257 67.9734 37.3517 67.9734C27.3776 67.9734 26.1965 67.9353 22.2584 67.7555C18.6166 67.5895 16.6389 66.981 15.3227 66.4695C13.5792 65.7919 12.335 64.9825 11.028 63.6754C9.72097 62.3684 8.91146 61.1242 8.23389 59.3807C7.72237 58.0645 7.11395 56.0867 6.94779 52.445C6.76807 48.5064 6.73001 47.325 6.73001 37.3518C6.73001 27.3784 6.76807 26.197 6.94779 22.2585C7.11395 18.6167 7.72237 16.639 8.23389 15.3228C8.91146 13.5793 9.72091 12.3351 11.0279 11.0281C12.335 9.72095 13.5792 8.91156 15.3227 8.23398C16.6389 7.72245 18.6166 7.11396 22.2584 6.9479C26.197 6.7682 27.3783 6.73009 37.3517 6.73009ZM37.3517 49.8023C30.4754 49.8023 24.9011 44.228 24.9011 37.3518C24.9011 30.4755 30.4754 24.9012 37.3517 24.9012C44.2279 24.9012 49.8022 30.4755 49.8022 37.3518C49.8022 44.228 44.2279 49.8023 37.3517 49.8023ZM37.3517 18.1712C26.7584 18.1712 18.1711 26.7585 18.1711 37.3518C18.1711 47.9449 26.7584 56.5323 37.3517 56.5323C47.9448 56.5323 56.5322 47.9449 56.5322 37.3518C56.5322 26.7585 47.9448 18.1712 37.3517 18.1712ZM57.29 21.8955C59.7655 21.8955 61.7723 19.8888 61.7723 17.4134C61.7723 14.9379 59.7655 12.9311 57.29 12.9311C54.8147 12.9311 52.8079 14.9379 52.8079 17.4134C52.8079 19.8888 54.8147 21.8955 57.29 21.8955Z" fill="#100F0D"/>
</svg>
