<svg width="90" height="74" viewBox="0 0 90 74" fill="none" xmlns="http://www.w3.org/2000/svg">
<path d="M89.8131 8.67781C86.5089 10.1436 82.9572 11.1337 79.2304 11.5792C83.034 9.29887 85.9561 5.68793 87.332 1.38498C83.7714 3.49694 79.8281 5.03004 75.6307 5.85632C72.2699 2.27502 67.4811 0.0377884 62.1812 0.0377884C52.0054 0.0377884 43.7548 8.28757 43.7548 18.4634C43.7548 19.9076 43.9177 21.3141 44.2319 22.6626C28.9181 21.8943 15.3405 14.5583 6.2527 3.41026C4.66642 6.13161 3.75777 9.29707 3.75777 12.674C3.75777 19.0669 7.01067 24.7067 11.9552 28.011C8.93465 27.9153 6.09328 27.0863 3.60919 25.7064C3.60743 25.7832 3.60743 25.86 3.60743 25.9381C3.60743 34.8656 9.95906 42.3126 18.3882 44.0059C16.8422 44.4269 15.2144 44.6523 13.5339 44.6523C12.3465 44.6523 11.1922 44.5365 10.067 44.3216C12.4118 51.6417 19.2167 56.9695 27.2798 57.1176C20.9736 62.0601 13.0287 65.0058 4.39558 65.0058C2.90822 65.0058 1.4414 64.9183 0 64.7482C8.1544 69.9761 17.84 73.0271 28.2457 73.0271C62.1381 73.0271 80.6724 44.9498 80.6724 20.6C80.6724 19.8012 80.654 19.0068 80.6185 18.2164C84.2191 15.6181 87.3428 12.3732 89.8131 8.67781Z" fill="black"/>
</svg>
