<svg width="71" height="70" viewBox="0 0 71 70" fill="none" xmlns="http://www.w3.org/2000/svg">
<path d="M35.2509 0.262451C15.7849 0.262451 0 16.0445 0 35.5134C0 51.0881 10.1005 64.3017 24.1067 68.9628C25.8685 69.2892 26.5152 68.1982 26.5152 67.2671C26.5152 66.4265 26.4825 63.6496 26.4674 60.7041C16.6605 62.8365 14.5912 56.5449 14.5912 56.5449C12.9876 52.4704 10.6772 51.387 10.6772 51.387C7.47888 49.1992 10.9183 49.2441 10.9183 49.2441C14.4581 49.4928 16.322 52.8767 16.322 52.8767C19.466 58.2658 24.5685 56.7078 26.58 55.8071C26.8964 53.5288 27.81 51.9737 28.8181 51.0934C20.9884 50.202 12.7576 47.1794 12.7576 33.6722C12.7576 29.8236 14.1347 26.679 16.3897 24.2104C16.0237 23.3225 14.8171 19.7372 16.7312 14.8816C16.7312 14.8816 19.6913 13.9342 26.4277 18.495C29.2396 17.714 32.2552 17.3223 35.2509 17.3088C38.2467 17.3223 41.2646 17.714 44.0817 18.495C50.8099 13.9342 53.766 14.8816 53.766 14.8816C55.6847 19.7372 54.4776 23.3225 54.1116 24.2104C56.3718 26.679 57.7395 29.8236 57.7395 33.6722C57.7395 47.2115 49.493 50.1927 41.6435 51.0654C42.9078 52.1593 44.0345 54.3045 44.0345 57.5933C44.0345 62.31 43.9936 66.106 43.9936 67.2671C43.9936 68.2052 44.6281 69.3043 46.4149 68.9582C60.4136 64.2918 70.5012 51.0829 70.5012 35.5134C70.5012 16.0445 54.7187 0.262451 35.2509 0.262451ZM13.2026 50.4781C13.125 50.6532 12.8495 50.7058 12.5984 50.5855C12.3428 50.4705 12.1992 50.2318 12.2821 50.0561C12.3579 49.8757 12.6341 49.8255 12.8891 49.9463C13.1454 50.0613 13.2913 50.3024 13.2026 50.4781ZM14.9366 52.0253C14.7684 52.1812 14.4398 52.1088 14.2168 51.8624C13.9862 51.6167 13.943 51.288 14.1135 51.1298C14.2869 50.974 14.6056 51.047 14.8367 51.2927C15.0673 51.5414 15.1123 51.8677 14.9366 52.0253ZM16.1261 54.0049C15.9101 54.1549 15.557 54.0142 15.3387 53.7007C15.1227 53.3873 15.1227 53.0113 15.3433 52.8607C15.5622 52.7101 15.9101 52.8456 16.1314 53.1567C16.3468 53.4754 16.3468 53.8513 16.1261 54.0049ZM18.1379 56.2975C17.9447 56.5106 17.5332 56.4533 17.232 56.1626C16.9237 55.8784 16.8379 55.475 17.0317 55.2619C17.2273 55.0483 17.6412 55.1084 17.9447 55.3968C18.2506 55.6805 18.344 56.0868 18.1379 56.2975ZM20.738 57.0714C20.6527 57.3476 20.2564 57.4731 19.8571 57.3557C19.4584 57.2349 19.1975 56.9115 19.278 56.6325C19.3609 56.3546 19.759 56.2239 20.1612 56.3494C20.5593 56.4696 20.8209 56.7907 20.738 57.0714ZM23.6969 57.3997C23.7069 57.6904 23.3683 57.9315 22.9492 57.9368C22.5277 57.9461 22.1868 57.7109 22.1821 57.4248C22.1821 57.1312 22.5131 56.8925 22.9346 56.8855C23.3537 56.8773 23.6969 57.1108 23.6969 57.3997ZM26.6038 57.2883C26.654 57.572 26.3627 57.8633 25.9465 57.9409C25.5373 58.0157 25.1585 57.8405 25.1065 57.5592C25.0557 57.2685 25.3523 56.9772 25.7609 56.9019C26.1777 56.8295 26.5507 57 26.6038 57.2883Z" fill="#161614"/>
</svg>
