<svg width="101" height="76" viewBox="0 0 101 76" fill="none" xmlns="http://www.w3.org/2000/svg">
<path d="M92.8654 0.447266H7.74763C3.48113 0.447266 0 3.92839 0 8.19489V68.1382C0 72.4047 3.48113 75.8858 7.74763 75.8858H92.8654C97.1319 75.8858 100.613 72.4047 100.613 68.1382V8.19489C100.613 3.92839 97.1319 0.447266 92.8654 0.447266ZM91.7404 6.17839L50.8372 41.1595L9.93395 6.17839H91.7404ZM94.8819 68.1382C94.8819 69.242 93.9692 70.1547 92.8654 70.1547H7.74763C6.64386 70.1547 5.73112 69.242 5.73112 68.1382V10.1265L48.9693 47.1028C48.9905 47.1241 49.0329 47.1453 49.0542 47.1665C49.0754 47.1877 49.1178 47.209 49.1391 47.2302C49.2027 47.2727 49.2452 47.3151 49.3089 47.3363C49.3301 47.3576 49.3513 47.3576 49.3726 47.3788C49.4575 47.4212 49.5424 47.4637 49.6273 47.5061C49.6485 47.5061 49.6697 47.5274 49.691 47.5274C49.7546 47.5486 49.8183 47.591 49.9032 47.6123C49.9244 47.6123 49.9669 47.6335 49.9881 47.6335C50.0518 47.6547 50.1155 47.676 50.1792 47.676C50.2004 47.676 50.2428 47.6972 50.2641 47.6972C50.3277 47.7184 50.4127 47.7184 50.4763 47.7396C50.4976 47.7396 50.5188 47.7396 50.54 47.7396C50.6249 47.7396 50.731 47.7609 50.816 47.7609C50.9009 47.7609 51.007 47.7609 51.0919 47.7396C51.1131 47.7396 51.1343 47.7396 51.1556 47.7396C51.2193 47.7396 51.3042 47.7184 51.3678 47.6972C51.3891 47.6972 51.4315 47.676 51.4527 47.676C51.5164 47.6547 51.5801 47.6335 51.6438 47.6335C51.665 47.6335 51.7075 47.6123 51.7287 47.6123C51.7924 47.591 51.856 47.5698 51.9409 47.5274C51.9622 47.5274 51.9834 47.5061 52.0046 47.5061C52.0895 47.4637 52.1744 47.4212 52.2593 47.3788C52.2806 47.3576 52.3018 47.3576 52.323 47.3363C52.3867 47.2939 52.4292 47.2727 52.4928 47.2302C52.5141 47.209 52.5565 47.1877 52.5777 47.1665C52.599 47.1453 52.6414 47.1241 52.6626 47.1028L94.8819 11.0392V68.1382Z" fill="black"/>
</svg>
